# File created by Blade
# Date/Time:  Mon Sep 22 17:38:34 2014
# Frame Rate: 120.000 fps
#------------------------------------------------------
:FULLY-SPECIFIED
:DEGREES
1965
root 0.102558 36.983312 5.782597 -13.096050 6.197388 5.802448
RightUpLeg 21.857816 -9.631945 0.314170
RightLeg -6.184159 -0.000000 0.000000
RightFoot -13.533852 -24.621122 8.995939
RightToeBase 7.501250 -0.000000 -0.000000
LeftUpLeg -27.112170 31.989775 10.794460
LeftLeg 76.973989 -0.000000 -0.000000
LeftFoot 17.240363 29.131241 -30.545879
LeftToeBase -4.073013 -0.000000 0.000000
Spine 25.415780 -9.231469 -4.293160
RightShoulder 4.266828 -26.610903 -11.602120
RightArm 21.127843 -18.238675 57.142951
RightForeArm 5.649972 -0.000000 47.675008
RightHand -0.289938 -0.000000 -2.821347
RightHandThumb1 -24.326973 -0.000000 -32.862282
LeftShoulder -13.980276 28.430375 6.696065
LeftArm 62.893286 -38.162721 -57.315081
LeftForeArm 30.116761 -0.000000 35.953922
LeftHand -20.192197 -0.000000 4.493850
LeftHandThumb1 -26.253704 0.000000 33.147579
Head 17.635068 18.419027 -3.896934
1966
root 0.107710 36.991144 5.770953 -12.998247 6.039107 5.828498
RightUpLeg 21.682761 -9.695734 0.270669
RightLeg -6.086538 -0.000000 0.000000
RightFoot -13.503129 -24.485866 8.941097
RightToeBase 7.500860 -0.000000 -0.000000
LeftUpLeg -27.008223 31.965726 10.875938
LeftLeg 76.783352 -0.000000 -0.000000
LeftFoot 17.203203 29.197386 -30.473052
LeftToeBase -4.144516 -0.000000 0.000000
Spine 25.316596 -9.172384 -4.289275
RightShoulder 4.341884 -26.509467 -11.641422
RightArm 21.107470 -18.149073 57.128076
RightForeArm 5.614988 0.000000 47.957373
RightHand -0.239080 -0.000000 -3.027514
RightHandThumb1 -24.326973 -0.000000 -32.862282
LeftShoulder -13.943420 28.407906 6.701221
LeftArm 62.716812 -38.155723 -57.148784
LeftForeArm 30.542839 -0.000000 35.989783
LeftHand -20.129239 -0.000000 4.545458
LeftHandThumb1 -26.253704 0.000000 33.147579
Head 17.642444 18.503289 -3.912576
1967
root 0.113455 36.999285 5.764644 -12.953779 5.899168 5.864172
RightUpLeg 21.580235 -9.751032 0.211748
RightLeg -6.003962 -0.000000 0.000000
RightFoot -13.471966 -24.370362 8.883533
RightToeBase 7.492728 -0.000000 -0.000000
LeftUpLeg -26.826974 31.921897 10.994640
LeftLeg 76.609096 -0.000000 -0.000000
LeftFoot 17.143909 29.316941 -30.436261
LeftToeBase -4.152418 -0.000000 0.000000
Spine 25.298531 -9.133110 -4.318945
RightShoulder 4.388911 -26.412575 -11.688186
RightArm 21.126832 -18.066271 57.120879
RightForeArm 5.629533 -0.000000 48.253117
RightHand -0.214973 -0.000000 -3.056202
RightHandThumb1 -24.326973 -0.000000 -32.862282
LeftShoulder -13.927639 28.311274 6.709181
LeftArm 62.490896 -38.115919 -56.930961
LeftForeArm 30.758728 -0.000000 36.012576
LeftHand -20.069508 -0.000000 4.719685
LeftHandThumb1 -26.253704 0.000000 33.147579
Head 17.595598 18.596930 -3.911156
1968
root 0.117779 37.007472 5.758682 -12.922230 5.744854 5.914349
RightUpLeg 21.496739 -9.744165 0.159729
RightLeg -5.941965 -0.000000 0.000000
RightFoot -13.430604 -24.310592 8.833712
RightToeBase 7.438403 -0.000000 -0.000000
LeftUpLeg -26.619867 31.887817 11.122550
LeftLeg 76.461366 -0.000000 -0.000000
LeftFoot 17.035810 29.453836 -30.422733
LeftToeBase -3.991116 -0.000000 0.000000
Spine 25.300580 -9.059937 -4.373542
RightShoulder 4.426652 -26.373455 -11.719288
RightArm 21.172247 -17.947994 57.102192
RightForeArm 5.626006 -0.000000 48.598682
RightHand -0.271768 0.000000 -3.017406
RightHandThumb1 -24.326973 -0.000000 -32.862282
LeftShoulder -13.915805 28.204435 6.732921
LeftArm 62.308438 -38.083958 -56.769207
LeftForeArm 30.958356 0.000000 36.034501
LeftHand -20.138321 -0.000000 4.661056
LeftHandThumb1 -26.253704 0.000000 33.147579
Head 17.532469 18.668517 -3.899050
1969
root 0.123140 37.015586 5.752161 -12.874037 5.604501 5.957886
RightUpLeg 21.395940 -9.724880 0.126315
RightLeg -5.897136 -0.000000 0.000000
RightFoot -13.372743 -24.318583 8.750660
RightToeBase 7.426998 -0.000000 -0.000000
LeftUpLeg -26.434709 31.836979 11.245539
LeftLeg 76.324376 -0.000000 -0.000000
LeftFoot 16.908249 29.612896 -30.453561
LeftToeBase -3.755468 -0.000000 0.000000
Spine 25.280794 -8.987992 -4.409844
RightShoulder 4.447060 -26.380006 -11.746753
RightArm 21.241526 -17.811418 57.068235
RightForeArm 5.612326 -0.000000 48.929518
RightHand -0.263424 0.000000 -3.116828
RightHandThumb1 -24.326973 -0.000000 -32.862282
LeftShoulder -13.902354 28.122552 6.757244
LeftArm 62.228200 -38.068324 -56.740816
LeftForeArm 31.050676 0.000000 36.031439
LeftHand -20.192296 -0.000000 4.710935
LeftHandThumb1 -26.253704 0.000000 33.147579
Head 17.465292 18.701951 -3.895628
1970
root 0.130083 37.023126 5.746416 -12.822962 5.454424 6.006597
RightUpLeg 21.285403 -9.660127 0.095882
RightLeg -5.820404 -0.000000 0.000000
RightFoot -13.357947 -24.307894 8.694622
RightToeBase 7.429207 -0.000000 -0.000000
LeftUpLeg -26.246402 31.811985 11.369241
LeftLeg 76.220210 -0.000000 -0.000000
LeftFoot 16.941545 29.703906 -30.230713
LeftToeBase -3.881609 -0.000000 0.000000
Spine 25.260640 -8.912208 -4.440369
RightShoulder 4.467730 -26.365442 -11.790939
RightArm 21.275511 -17.678817 57.067965
RightForeArm 5.647103 -0.000000 49.273076
RightHand -0.205643 0.000000 -3.213756
RightHandThumb1 -24.326973 -0.000000 -32.862282
LeftShoulder -13.921914 28.047896 6.748515
LeftArm 62.208230 -38.053170 -56.754808
LeftForeArm 31.064404 -0.000000 36.009827
LeftHand -20.169082 -0.000000 4.688906
LeftHandThumb1 -26.253704 0.000000 33.147579
Head 17.377805 18.730223 -3.916308
1971
root 0.138668 37.028311 5.737425 -12.709699 5.349349 6.055818
RightUpLeg 21.126000 -9.671718 0.047298
RightLeg -5.771485 -0.000000 0.000000
RightFoot -13.337735 -24.262259 8.631035
RightToeBase 7.405788 -0.000000 -0.000000
LeftUpLeg -26.160567 31.748402 11.434929
LeftLeg 76.160978 -0.000000 -0.000000
LeftFoot 16.879419 29.699797 -30.121966
LeftToeBase -3.876619 -0.000000 0.000000
Spine 25.161926 -8.877985 -4.461800
RightShoulder 4.485843 -26.319430 -11.837016
RightArm 21.226813 -17.573380 57.083243
RightForeArm 5.639636 -0.000000 49.655619
RightHand -0.168270 -0.000000 -3.291815
RightHandThumb1 -24.326973 -0.000000 -32.862282
LeftShoulder -13.980573 28.010541 6.697973
LeftArm 62.280170 -38.026756 -56.788489
LeftForeArm 30.933609 -0.000000 35.954615
LeftHand -20.113183 -0.000000 4.700493
LeftHandThumb1 -26.253704 0.000000 33.147579
Head 17.308490 18.734104 -3.950761
1972
root 0.144979 37.033247 5.728633 -12.595129 5.229860 6.099139
RightUpLeg 20.974244 -9.720619 -0.006211
RightLeg -5.742009 -0.000000 0.000000
RightFoot -13.273394 -24.159688 8.499744
RightToeBase 7.363682 -0.000000 -0.000000
LeftUpLeg -26.065712 31.705060 11.534119
LeftLeg 76.113734 -0.000000 -0.000000
LeftFoot 16.861171 29.675917 -30.063141
LeftToeBase -3.783335 -0.000000 0.000000
Spine 25.063716 -8.833536 -4.476581
RightShoulder 4.484923 -26.268596 -11.868366
RightArm 21.201360 -17.516742 57.066818
RightForeArm 5.641028 -0.000000 50.018249
RightHand -0.156557 -0.000000 -3.308276
RightHandThumb1 -24.326973 -0.000000 -32.862282
LeftShoulder -14.050449 27.958196 6.637399
LeftArm 62.340419 -37.994645 -56.793650
LeftForeArm 30.816115 -0.000000 35.917497
LeftHand -20.433491 0.000000 4.561078
LeftHandThumb1 -26.253704 0.000000 33.147579
Head 17.229046 18.727784 -3.996132
1973
root 0.154082 37.035742 5.716461 -12.446903 5.183548 6.117400
RightUpLeg 20.785639 -9.770366 -0.028853
RightLeg -5.707583 -0.000000 0.000000
RightFoot -13.246626 -24.103693 8.444609
RightToeBase 7.320402 -0.000000 -0.000000
LeftUpLeg -26.052827 31.588804 11.599776
LeftLeg 76.100028 -0.000000 -0.000000
LeftFoot 17.005193 29.569478 -29.874188
LeftToeBase -4.105142 -0.000000 0.000000
Spine 24.927244 -8.868033 -4.454925
RightShoulder 4.477541 -26.212405 -11.929959
RightArm 21.138973 -17.444928 57.078598
RightForeArm 5.636907 -0.000000 50.410098
RightHand -0.120983 -0.000000 -3.447892
RightHandThumb1 -24.326973 -0.000000 -32.862282
LeftShoulder -14.114594 27.865425 6.571494
LeftArm 62.384017 -37.929244 -56.795994
LeftForeArm 30.767324 0.000000 35.814337
LeftHand -20.263005 -0.000000 4.640314
LeftHandThumb1 -26.253704 0.000000 33.147579
Head 17.154654 18.704397 -4.077148
1974
root 0.163638 37.039749 5.708808 -12.341407 5.140457 6.158590
RightUpLeg 20.667722 -9.755829 -0.065083
RightLeg -5.709876 -0.000000 0.000000
RightFoot -13.216738 -24.098959 8.409170
RightToeBase 7.335429 -0.000000 -0.000000
LeftUpLeg -25.970443 31.497448 11.678898
LeftLeg 76.105039 -0.000000 -0.000000
LeftFoot 16.860461 29.547069 -30.085733
LeftToeBase -3.636472 -0.000000 0.000000
Spine 24.840279 -8.885650 -4.473748
RightShoulder 4.473517 -26.168971 -11.981649
RightArm 21.079249 -17.355758 57.108399
RightForeArm 5.590350 0.000000 50.781534
RightHand -0.149349 -0.000000 -3.465822
RightHandThumb1 -24.326973 -0.000000 -32.862282
LeftShoulder -14.165676 27.818208 6.529288
LeftArm 62.476624 -37.900525 -56.887926
LeftForeArm 30.743412 0.000000 35.788093
LeftHand -20.202347 -0.000000 4.594761
LeftHandThumb1 -26.253704 0.000000 33.147579
Head 17.079537 18.675232 -4.146365
1975
root 0.171730 37.042744 5.702485 -12.243742 5.109091 6.195190
RightUpLeg 20.567360 -9.749559 -0.099100
RightLeg -5.724707 -0.000000 0.000000
RightFoot -13.215323 -24.079582 8.417979
RightToeBase 7.355854 -0.000000 -0.000000
LeftUpLeg -25.881603 31.447327 11.762606
LeftLeg 76.107760 -0.000000 -0.000000
LeftFoot 16.893356 29.561508 -30.040273
LeftToeBase -3.734287 -0.000000 0.000000
Spine 24.755918 -8.903974 -4.488795
RightShoulder 4.450023 -26.170914 -12.020455
RightArm 21.070807 -17.272491 57.098329
RightForeArm 5.610175 0.000000 51.119921
RightHand -0.092415 -0.000000 -3.328476
RightHandThumb1 -24.326973 -0.000000 -32.862282
LeftShoulder -14.193767 27.789995 6.501197
LeftArm 62.562682 -37.873468 -56.973713
LeftForeArm 30.820531 -0.000000 35.819649
LeftHand -20.494515 -0.000000 4.536572
LeftHandThumb1 -26.253704 0.000000 33.147579
Head 17.026883 18.643135 -4.210893
1976
root 0.179243 37.044783 5.697889 -12.158324 5.081809 6.213319
RightUpLeg 20.487040 -9.760147 -0.118756
RightLeg -5.748211 -0.000000 0.000000
RightFoot -13.221187 -24.034560 8.447284
RightToeBase 7.367311 -0.000000 -0.000000
LeftUpLeg -25.789010 31.441755 11.864100
LeftLeg 76.155250 -0.000000 -0.000000
LeftFoot 16.850597 29.665486 -30.007402
LeftToeBase -3.774794 -0.000000 0.000000
Spine 24.684932 -8.941022 -4.478293
RightShoulder 4.442830 -26.157777 -12.088053
RightArm 21.042734 -17.210126 57.103835
RightForeArm 5.632850 -0.000000 51.471514
RightHand -0.057222 -0.000000 -3.460220
RightHandThumb1 -24.326973 -0.000000 -32.862282
LeftShoulder -14.204844 27.745649 6.467659
LeftArm 62.560133 -37.850491 -56.981549
LeftForeArm 30.855999 -0.000000 35.847887
LeftHand -20.205596 -0.000000 4.582275
LeftHandThumb1 -26.253704 0.000000 33.147579
Head 16.956350 18.637865 -4.308234
